<svg width="1152" height="182" viewBox="0 0 1152 182" fill="none" xmlns="http://www.w3.org/2000/svg">
<rect width="1152" height="182" fill="white"/>
<path d="M484.605 51H463.395C460.972 51 459 52.9716 459 55.3945V76.6055C459 79.0284 460.972 81 463.395 81H472.242V70.3945H468.727V65.1211H472.242V61.5469C472.242 58.6389 474.608 56.2734 477.516 56.2734H482.848V61.5469H477.516V65.1211H482.848L481.969 70.3945H477.516V81H484.605C487.028 81 489 79.0284 489 76.6055V55.3945C489 52.9716 487.028 51 484.605 51Z" fill="#21243D"/>
<path d="M686.605 51H665.395C662.972 51 661 52.9716 661 55.3945V76.6055C661 79.0284 662.972 81 665.395 81H686.605C689.028 81 691 79.0284 691 76.6055V55.3945C691 52.9716 689.028 51 686.605 51ZM671.605 74.7891H668.09V62.4844H671.605V74.7891ZM671.605 60.7266H668.09V57.2109H671.605V60.7266ZM683.91 74.7891H680.395V67.7578C680.395 66.7887 679.606 66 678.637 66C677.668 66 676.879 66.7887 676.879 67.7578V74.7891H673.363V62.4844H676.879V63.147C677.8 62.8607 678.398 62.4844 679.516 62.4844C681.9 62.4869 683.91 64.6258 683.91 67.1536V74.7891Z" fill="#21243D"/>
<path d="M625.923 54.5515C624.55 55.1538 623.087 55.5531 621.562 55.7469C623.131 54.81 624.328 53.3377 624.892 51.5631C623.428 52.4354 621.813 53.0515 620.092 53.3954C618.702 51.9162 616.722 51 614.562 51C610.372 51 606.998 54.4015 606.998 58.5715C606.998 59.1715 607.048 59.7485 607.173 60.2977C600.88 59.9908 595.312 56.9746 591.571 52.38C590.918 53.5131 590.535 54.81 590.535 56.2062C590.535 58.8277 591.885 61.1515 593.897 62.4969C592.681 62.4738 591.488 62.1208 590.477 61.5646C590.477 61.5877 590.477 61.6177 590.477 61.6477C590.477 65.3262 593.101 68.3815 596.542 69.0854C595.925 69.2538 595.254 69.3346 594.557 69.3346C594.072 69.3346 593.583 69.3069 593.124 69.2054C594.105 72.2031 596.888 74.4069 600.197 74.4785C597.622 76.4931 594.352 77.7069 590.812 77.7069C590.191 77.7069 589.595 77.6792 589 77.6031C592.353 79.7654 596.327 81 600.612 81C614.542 81 622.157 69.4615 622.157 59.46C622.157 59.1254 622.145 58.8023 622.129 58.4815C623.632 57.4154 624.894 56.0838 625.923 54.5515Z" fill="#21243D"/>
<path d="M545.721 51H532.279C527.714 51 524 54.714 524 59.2789V72.7211C524 77.2862 527.714 81 532.279 81H545.721C550.286 81 554 77.286 554 72.7211V59.2789C554 54.714 550.286 51 545.721 51ZM551.338 72.7211C551.338 75.8185 548.818 78.3383 545.721 78.3383H532.279C529.182 78.3384 526.662 75.8185 526.662 72.7211V59.2789C526.662 56.1817 529.182 53.6617 532.279 53.6617H545.721C548.818 53.6617 551.338 56.1817 551.338 59.2789V72.7211H551.338Z" fill="#21243D"/>
<path d="M539 58.2701C534.737 58.2701 531.27 61.7379 531.27 66.0004C531.27 70.2627 534.737 73.7303 539 73.7303C543.263 73.7303 546.73 70.2627 546.73 66.0004C546.73 61.7379 543.263 58.2701 539 58.2701ZM539 71.0683C536.205 71.0683 533.932 68.7949 533.932 66.0002C533.932 63.2054 536.205 60.9317 539 60.9317C541.795 60.9317 544.069 63.2054 544.069 66.0002C544.069 68.7949 541.795 71.0683 539 71.0683Z" fill="#21243D"/>
<path d="M547.054 56.0132C546.542 56.0132 546.038 56.2208 545.676 56.5846C545.312 56.9466 545.103 57.4505 545.103 57.9651C545.103 58.4781 545.312 58.9819 545.676 59.3457C546.038 59.7077 546.542 59.9171 547.054 59.9171C547.569 59.9171 548.071 59.7077 548.435 59.3457C548.799 58.9819 549.006 58.478 549.006 57.9651C549.006 57.4505 548.799 56.9466 548.435 56.5846C548.073 56.2208 547.569 56.0132 547.054 56.0132Z" fill="#21243D"/>
<path d="M472.659 118.842C472.591 119.466 472.411 120.029 472.119 120.53C471.827 121.027 471.415 121.419 470.882 121.706C470.349 121.993 469.681 122.137 468.879 122.137C468.1 122.137 467.418 121.948 466.835 121.569C466.252 121.187 465.798 120.649 465.475 119.956C465.151 119.263 464.989 118.454 464.989 117.529V116.524C464.989 115.595 465.151 114.786 465.475 114.098C465.803 113.405 466.268 112.867 466.869 112.484C467.471 112.102 468.182 111.91 469.002 111.91C469.754 111.91 470.39 112.051 470.909 112.334C471.429 112.612 471.832 113.002 472.119 113.503C472.411 114.004 472.591 114.583 472.659 115.239H471.333C471.233 114.542 471.009 113.993 470.663 113.592C470.321 113.186 469.768 112.983 469.002 112.983C468.414 112.983 467.922 113.132 467.525 113.428C467.129 113.719 466.828 114.13 466.623 114.658C466.423 115.187 466.322 115.804 466.322 116.511V117.529C466.322 118.181 466.413 118.776 466.596 119.313C466.778 119.847 467.056 120.273 467.43 120.592C467.808 120.911 468.291 121.07 468.879 121.07C469.439 121.07 469.884 120.981 470.212 120.804C470.545 120.626 470.795 120.371 470.964 120.038C471.137 119.705 471.26 119.307 471.333 118.842H472.659ZM473.924 118.227C473.924 117.511 474.061 116.871 474.334 116.306C474.607 115.741 474.995 115.294 475.496 114.966C475.997 114.633 476.592 114.467 477.28 114.467C477.978 114.467 478.579 114.633 479.085 114.966C479.591 115.294 479.978 115.741 480.247 116.306C480.521 116.871 480.657 117.511 480.657 118.227V118.384C480.657 119.095 480.521 119.735 480.247 120.305C479.978 120.87 479.591 121.316 479.085 121.645C478.584 121.973 477.987 122.137 477.294 122.137C476.601 122.137 476.002 121.973 475.496 121.645C474.995 121.316 474.607 120.87 474.334 120.305C474.061 119.735 473.924 119.095 473.924 118.384V118.227ZM475.202 118.384C475.202 118.871 475.28 119.323 475.435 119.737C475.59 120.152 475.82 120.485 476.125 120.735C476.435 120.986 476.825 121.111 477.294 121.111C477.759 121.111 478.144 120.986 478.449 120.735C478.759 120.485 478.992 120.152 479.146 119.737C479.301 119.323 479.379 118.871 479.379 118.384V118.227C479.379 117.739 479.301 117.288 479.146 116.873C478.992 116.458 478.759 116.126 478.449 115.875C478.139 115.62 477.75 115.492 477.28 115.492C476.82 115.492 476.435 115.62 476.125 115.875C475.815 116.126 475.583 116.458 475.428 116.873C475.277 117.288 475.202 117.739 475.202 118.227V118.384ZM483.528 124.844H482.25V114.604H483.412L483.528 116.025V124.844ZM488.505 118.384C488.505 119.104 488.393 119.746 488.17 120.312C487.947 120.877 487.621 121.323 487.192 121.651C486.769 121.975 486.251 122.137 485.641 122.137C485.007 122.137 484.476 122 484.048 121.727C483.619 121.453 483.285 121.066 483.043 120.564C482.801 120.059 482.644 119.462 482.571 118.773V117.98C482.644 117.256 482.801 116.632 483.043 116.107C483.289 115.583 483.624 115.18 484.048 114.897C484.476 114.61 485 114.467 485.62 114.467C486.24 114.467 486.764 114.624 487.192 114.938C487.621 115.253 487.947 115.695 488.17 116.265C488.393 116.83 488.505 117.488 488.505 118.24V118.384ZM487.227 118.24C487.227 117.748 487.156 117.297 487.015 116.887C486.878 116.472 486.661 116.142 486.365 115.896C486.074 115.649 485.698 115.526 485.237 115.526C484.923 115.526 484.649 115.581 484.417 115.69C484.185 115.8 483.986 115.948 483.822 116.135C483.658 116.317 483.524 116.527 483.419 116.764C483.319 116.996 483.243 117.238 483.193 117.488V119.272C483.285 119.591 483.41 119.892 483.569 120.175C483.733 120.453 483.95 120.678 484.219 120.852C484.492 121.025 484.836 121.111 485.251 121.111C485.707 121.111 486.08 120.986 486.372 120.735C486.664 120.485 486.878 120.154 487.015 119.744C487.156 119.329 487.227 118.876 487.227 118.384V118.24ZM494.247 114.604H495.607L492.641 123.142C492.572 123.324 492.481 123.52 492.367 123.729C492.258 123.944 492.117 124.146 491.943 124.338C491.775 124.529 491.567 124.684 491.321 124.803C491.075 124.926 490.784 124.987 490.446 124.987C490.378 124.987 490.296 124.98 490.2 124.967C490.104 124.953 490.013 124.937 489.927 124.919C489.84 124.905 489.774 124.892 489.729 124.878V123.859C489.765 123.864 489.822 123.871 489.899 123.88C489.981 123.889 490.038 123.894 490.07 123.894C490.499 123.894 490.834 123.805 491.075 123.627C491.317 123.449 491.513 123.132 491.663 122.677L492.189 121.234L494.247 114.604ZM492.606 120.353L492.935 121.686L492.019 122.144L489.305 114.604H490.699L492.606 120.353ZM498.021 122H496.742V114.604H497.986L498.021 115.766V122ZM500.324 115.731C500.215 115.709 500.112 115.695 500.017 115.69C499.925 115.681 499.821 115.677 499.702 115.677C499.315 115.677 498.987 115.757 498.718 115.916C498.453 116.076 498.248 116.297 498.103 116.579C497.957 116.857 497.866 117.176 497.829 117.536L497.467 117.741C497.467 117.144 497.547 116.6 497.706 116.107C497.866 115.611 498.114 115.214 498.451 114.918C498.793 114.617 499.23 114.467 499.764 114.467C499.85 114.467 499.953 114.478 500.071 114.501C500.194 114.519 500.279 114.54 500.324 114.562V115.731ZM502.874 122H501.596V114.604H502.874V122ZM501.5 112.635C501.5 112.434 501.562 112.263 501.685 112.122C501.812 111.981 501.999 111.91 502.245 111.91C502.491 111.91 502.678 111.981 502.806 112.122C502.938 112.263 503.004 112.434 503.004 112.635C503.004 112.831 502.938 112.999 502.806 113.141C502.678 113.277 502.491 113.346 502.245 113.346C501.999 113.346 501.812 113.277 501.685 113.141C501.562 112.999 501.5 112.831 501.5 112.635ZM510.845 114.604V121.843C510.845 122.494 510.71 123.05 510.441 123.511C510.177 123.971 509.808 124.32 509.334 124.557C508.865 124.798 508.322 124.919 507.707 124.919C507.452 124.919 507.151 124.878 506.805 124.796C506.463 124.718 506.126 124.584 505.793 124.393C505.465 124.206 505.189 123.953 504.966 123.634L505.629 122.889C505.939 123.262 506.262 123.522 506.6 123.668C506.941 123.818 507.279 123.894 507.611 123.894C508.208 123.894 508.682 123.723 509.033 123.381C509.389 123.044 509.566 122.551 509.566 121.904V116.23L509.683 114.604H510.845ZM504.59 118.24C504.59 117.488 504.708 116.83 504.945 116.265C505.182 115.695 505.52 115.253 505.957 114.938C506.395 114.624 506.914 114.467 507.516 114.467C507.98 114.467 508.386 114.549 508.732 114.713C509.083 114.872 509.38 115.105 509.621 115.41C509.867 115.715 510.061 116.085 510.202 116.518C510.348 116.951 510.448 117.438 510.503 117.98V118.644C510.435 119.359 510.282 119.979 510.045 120.503C509.812 121.022 509.487 121.426 509.067 121.713C508.648 121.995 508.126 122.137 507.502 122.137C506.91 122.137 506.395 121.975 505.957 121.651C505.524 121.323 505.187 120.877 504.945 120.312C504.708 119.746 504.59 119.104 504.59 118.384V118.24ZM505.868 118.384C505.868 118.876 505.934 119.325 506.066 119.73C506.203 120.136 506.415 120.462 506.702 120.708C506.989 120.95 507.361 121.07 507.816 121.07C508.236 121.07 508.58 120.981 508.849 120.804C509.118 120.626 509.334 120.391 509.498 120.1C509.662 119.808 509.79 119.491 509.881 119.149V117.488C509.826 117.238 509.749 116.996 509.648 116.764C509.548 116.527 509.416 116.317 509.252 116.135C509.088 115.948 508.887 115.8 508.65 115.69C508.418 115.581 508.145 115.526 507.83 115.526C507.37 115.526 506.994 115.649 506.702 115.896C506.415 116.142 506.203 116.472 506.066 116.887C505.934 117.297 505.868 117.748 505.868 118.24V118.384ZM514.03 122H512.752V111.5H514.03V122ZM513.196 117.994C513.205 117.32 513.335 116.718 513.586 116.189C513.837 115.656 514.185 115.237 514.632 114.932C515.083 114.622 515.607 114.467 516.204 114.467C516.692 114.467 517.111 114.558 517.462 114.74C517.817 114.918 518.091 115.203 518.282 115.595C518.478 115.987 518.576 116.506 518.576 117.153V122H517.298V117.14C517.298 116.752 517.241 116.44 517.127 116.203C517.018 115.966 516.854 115.795 516.635 115.69C516.416 115.581 516.147 115.526 515.828 115.526C515.514 115.526 515.229 115.592 514.974 115.725C514.718 115.857 514.497 116.039 514.311 116.271C514.124 116.504 513.98 116.771 513.88 117.071C513.78 117.368 513.729 117.682 513.729 118.015L513.196 117.994ZM523.573 115.567H519.567V114.604H523.573V115.567ZM522.192 112.806V120.168C522.192 120.423 522.231 120.615 522.309 120.742C522.386 120.87 522.486 120.954 522.609 120.995C522.732 121.036 522.865 121.057 523.006 121.057C523.111 121.057 523.22 121.048 523.334 121.029C523.452 121.011 523.539 120.995 523.594 120.981L523.601 122C523.5 122.032 523.368 122.062 523.204 122.089C523.045 122.121 522.851 122.137 522.623 122.137C522.313 122.137 522.028 122.075 521.769 121.952C521.509 121.829 521.301 121.624 521.146 121.337C520.992 121.045 520.914 120.653 520.914 120.161V112.806H522.192ZM535.208 117.912C535.208 118.628 535.005 119.165 534.6 119.525C534.194 119.881 533.643 120.059 532.945 120.059C532.216 120.059 531.637 119.815 531.209 119.327C530.785 118.835 530.573 118.197 530.573 117.413V116.627C530.573 115.843 530.785 115.207 531.209 114.72C531.637 114.228 532.216 113.981 532.945 113.981C533.643 113.981 534.194 114.159 534.6 114.515C535.01 114.87 535.215 115.406 535.215 116.121H534.217C534.217 115.67 534.107 115.346 533.889 115.15C533.674 114.95 533.36 114.85 532.945 114.85C532.645 114.85 532.392 114.927 532.187 115.082C531.981 115.232 531.826 115.44 531.722 115.704C531.617 115.968 531.564 116.274 531.564 116.62V117.413C531.564 117.937 531.681 118.363 531.913 118.691C532.15 119.02 532.494 119.184 532.945 119.184C533.36 119.184 533.674 119.088 533.889 118.896C534.103 118.701 534.21 118.372 534.21 117.912H535.208ZM528.974 117.017C528.974 117.623 529.078 118.188 529.288 118.712C529.498 119.236 529.789 119.694 530.163 120.086C530.537 120.478 530.967 120.783 531.455 121.002C531.947 121.221 532.474 121.33 533.034 121.33C533.595 121.33 534.119 121.221 534.606 121.002C535.099 120.783 535.529 120.478 535.898 120.086C536.272 119.694 536.564 119.236 536.773 118.712C536.983 118.188 537.088 117.623 537.088 117.017C537.088 116.406 536.983 115.841 536.773 115.321C536.564 114.802 536.272 114.348 535.898 113.961C535.529 113.569 535.099 113.266 534.606 113.052C534.119 112.833 533.595 112.724 533.034 112.724C532.474 112.724 531.947 112.833 531.455 113.052C530.967 113.266 530.537 113.569 530.163 113.961C529.789 114.348 529.498 114.802 529.288 115.321C529.078 115.841 528.974 116.406 528.974 117.017ZM528.181 117.017C528.181 116.292 528.306 115.62 528.557 115C528.807 114.38 529.156 113.84 529.603 113.38C530.049 112.915 530.564 112.555 531.147 112.3C531.735 112.04 532.364 111.91 533.034 111.91C533.704 111.91 534.331 112.04 534.914 112.3C535.502 112.555 536.017 112.915 536.459 113.38C536.906 113.84 537.254 114.38 537.505 115C537.756 115.62 537.881 116.292 537.881 117.017C537.881 117.741 537.756 118.413 537.505 119.033C537.254 119.653 536.906 120.198 536.459 120.667C536.017 121.132 535.502 121.494 534.914 121.754C534.331 122.014 533.704 122.144 533.034 122.144C532.364 122.144 531.735 122.014 531.147 121.754C530.564 121.494 530.049 121.132 529.603 120.667C529.156 120.198 528.807 119.653 528.557 119.033C528.306 118.413 528.181 117.741 528.181 117.017ZM545.92 122H539.392V121.098L542.652 117.468C543.058 117.021 543.37 116.643 543.589 116.333C543.812 116.019 543.967 115.736 544.054 115.485C544.14 115.235 544.184 114.979 544.184 114.72C544.184 114.228 544.033 113.808 543.732 113.462C543.436 113.111 543.012 112.936 542.461 112.936C542.014 112.936 541.643 113.022 541.347 113.195C541.055 113.368 540.836 113.608 540.69 113.913C540.549 114.218 540.479 114.572 540.479 114.973H539.2C539.2 114.412 539.323 113.899 539.569 113.435C539.815 112.97 540.18 112.601 540.663 112.327C541.151 112.049 541.75 111.91 542.461 111.91C543.4 111.91 544.133 112.154 544.662 112.642C545.195 113.129 545.462 113.772 545.462 114.569C545.462 114.961 545.378 115.355 545.209 115.752C545.04 116.148 544.815 116.543 544.532 116.935C544.25 117.322 543.938 117.7 543.596 118.069L540.93 120.975H545.92V122ZM553.515 117.755C553.515 118.835 553.387 119.696 553.132 120.339C552.881 120.977 552.521 121.437 552.052 121.72C551.582 121.998 551.026 122.137 550.384 122.137C549.75 122.137 549.197 121.998 548.723 121.72C548.249 121.437 547.88 120.977 547.615 120.339C547.355 119.696 547.226 118.835 547.226 117.755V116.23C547.226 115.146 547.353 114.289 547.608 113.66C547.868 113.031 548.233 112.582 548.702 112.313C549.176 112.045 549.732 111.91 550.37 111.91C551.013 111.91 551.569 112.045 552.038 112.313C552.507 112.582 552.87 113.031 553.125 113.66C553.385 114.289 553.515 115.146 553.515 116.23V117.755ZM552.236 116.019C552.236 115.271 552.166 114.672 552.024 114.221C551.883 113.77 551.674 113.444 551.396 113.243C551.118 113.038 550.776 112.936 550.37 112.936C549.969 112.936 549.63 113.038 549.352 113.243C549.074 113.444 548.862 113.77 548.716 114.221C548.575 114.672 548.504 115.271 548.504 116.019V117.953C548.504 118.696 548.577 119.3 548.723 119.765C548.868 120.229 549.08 120.571 549.358 120.79C549.641 121.004 549.983 121.111 550.384 121.111C550.794 121.111 551.136 121.004 551.409 120.79C551.683 120.571 551.888 120.229 552.024 119.765C552.166 119.3 552.236 118.696 552.236 117.953V116.019ZM561.67 122H555.142V121.098L558.402 117.468C558.808 117.021 559.12 116.643 559.339 116.333C559.562 116.019 559.717 115.736 559.804 115.485C559.89 115.235 559.934 114.979 559.934 114.72C559.934 114.228 559.783 113.808 559.482 113.462C559.186 113.111 558.762 112.936 558.211 112.936C557.764 112.936 557.393 113.022 557.097 113.195C556.805 113.368 556.586 113.608 556.44 113.913C556.299 114.218 556.229 114.572 556.229 114.973H554.95C554.95 114.412 555.073 113.899 555.319 113.435C555.565 112.97 555.93 112.601 556.413 112.327C556.901 112.049 557.5 111.91 558.211 111.91C559.15 111.91 559.883 112.154 560.412 112.642C560.945 113.129 561.212 113.772 561.212 114.569C561.212 114.961 561.128 115.355 560.959 115.752C560.79 116.148 560.565 116.543 560.282 116.935C560 117.322 559.688 117.7 559.346 118.069L556.68 120.975H561.67V122ZM569.265 117.755C569.265 118.835 569.137 119.696 568.882 120.339C568.631 120.977 568.271 121.437 567.802 121.72C567.332 121.998 566.776 122.137 566.134 122.137C565.5 122.137 564.947 121.998 564.473 121.72C563.999 121.437 563.63 120.977 563.365 120.339C563.105 119.696 562.976 118.835 562.976 117.755V116.23C562.976 115.146 563.103 114.289 563.358 113.66C563.618 113.031 563.983 112.582 564.452 112.313C564.926 112.045 565.482 111.91 566.12 111.91C566.763 111.91 567.319 112.045 567.788 112.313C568.257 112.582 568.62 113.031 568.875 113.66C569.135 114.289 569.265 115.146 569.265 116.23V117.755ZM567.986 116.019C567.986 115.271 567.916 114.672 567.774 114.221C567.633 113.77 567.424 113.444 567.146 113.243C566.868 113.038 566.526 112.936 566.12 112.936C565.719 112.936 565.38 113.038 565.102 113.243C564.824 113.444 564.612 113.77 564.466 114.221C564.325 114.672 564.254 115.271 564.254 116.019V117.953C564.254 118.696 564.327 119.3 564.473 119.765C564.618 120.229 564.83 120.571 565.108 120.79C565.391 121.004 565.733 121.111 566.134 121.111C566.544 121.111 566.886 121.004 567.159 120.79C567.433 120.571 567.638 120.229 567.774 119.765C567.916 119.3 567.986 118.696 567.986 117.953V116.019ZM575.096 122H573.729L577.529 112.047H578.404L578.384 112.922L575.096 122ZM577.837 112.922L577.823 112.047H578.691L582.499 122H581.139L577.837 112.922ZM580.975 119.396H575.376V118.322H580.975V119.396ZM585.028 122H583.75V111.5H585.028V122ZM588.433 122H587.154V111.5H588.433V122ZM595.2 122H593.922V114.604H595.166L595.2 115.766V122ZM597.504 115.731C597.395 115.709 597.292 115.695 597.196 115.69C597.105 115.681 597 115.677 596.882 115.677C596.494 115.677 596.166 115.757 595.897 115.916C595.633 116.076 595.428 116.297 595.282 116.579C595.136 116.857 595.045 117.176 595.009 117.536L594.646 117.741C594.646 117.144 594.726 116.6 594.886 116.107C595.045 115.611 595.294 115.214 595.631 114.918C595.973 114.617 596.41 114.467 596.943 114.467C597.03 114.467 597.132 114.478 597.251 114.501C597.374 114.519 597.458 114.54 597.504 114.562V115.731ZM600.054 122H598.775V114.604H600.054V122ZM598.68 112.635C598.68 112.434 598.741 112.263 598.864 112.122C598.992 111.981 599.179 111.91 599.425 111.91C599.671 111.91 599.858 111.981 599.985 112.122C600.118 112.263 600.184 112.434 600.184 112.635C600.184 112.831 600.118 112.999 599.985 113.141C599.858 113.277 599.671 113.346 599.425 113.346C599.179 113.346 598.992 113.277 598.864 113.141C598.741 112.999 598.68 112.831 598.68 112.635ZM608.024 114.604V121.843C608.024 122.494 607.89 123.05 607.621 123.511C607.357 123.971 606.988 124.32 606.514 124.557C606.044 124.798 605.502 124.919 604.887 124.919C604.632 124.919 604.331 124.878 603.984 124.796C603.643 124.718 603.305 124.584 602.973 124.393C602.645 124.206 602.369 123.953 602.146 123.634L602.809 122.889C603.118 123.262 603.442 123.522 603.779 123.668C604.121 123.818 604.458 123.894 604.791 123.894C605.388 123.894 605.862 123.723 606.213 123.381C606.568 123.044 606.746 122.551 606.746 121.904V116.23L606.862 114.604H608.024ZM601.77 118.24C601.77 117.488 601.888 116.83 602.125 116.265C602.362 115.695 602.699 115.253 603.137 114.938C603.574 114.624 604.094 114.467 604.695 114.467C605.16 114.467 605.566 114.549 605.912 114.713C606.263 114.872 606.559 115.105 606.801 115.41C607.047 115.715 607.241 116.085 607.382 116.518C607.528 116.951 607.628 117.438 607.683 117.98V118.644C607.614 119.359 607.462 119.979 607.225 120.503C606.992 121.022 606.666 121.426 606.247 121.713C605.828 121.995 605.306 122.137 604.682 122.137C604.089 122.137 603.574 121.975 603.137 121.651C602.704 121.323 602.367 120.877 602.125 120.312C601.888 119.746 601.77 119.104 601.77 118.384V118.24ZM603.048 118.384C603.048 118.876 603.114 119.325 603.246 119.73C603.383 120.136 603.595 120.462 603.882 120.708C604.169 120.95 604.54 121.07 604.996 121.07C605.415 121.07 605.759 120.981 606.028 120.804C606.297 120.626 606.514 120.391 606.678 120.1C606.842 119.808 606.969 119.491 607.061 119.149V117.488C607.006 117.238 606.928 116.996 606.828 116.764C606.728 116.527 606.596 116.317 606.432 116.135C606.268 115.948 606.067 115.8 605.83 115.69C605.598 115.581 605.324 115.526 605.01 115.526C604.549 115.526 604.174 115.649 603.882 115.896C603.595 116.142 603.383 116.472 603.246 116.887C603.114 117.297 603.048 117.748 603.048 118.24V118.384ZM611.21 122H609.932V111.5H611.21V122ZM610.376 117.994C610.385 117.32 610.515 116.718 610.766 116.189C611.016 115.656 611.365 115.237 611.812 114.932C612.263 114.622 612.787 114.467 613.384 114.467C613.871 114.467 614.291 114.558 614.642 114.74C614.997 114.918 615.271 115.203 615.462 115.595C615.658 115.987 615.756 116.506 615.756 117.153V122H614.478V117.14C614.478 116.752 614.421 116.44 614.307 116.203C614.197 115.966 614.033 115.795 613.814 115.69C613.596 115.581 613.327 115.526 613.008 115.526C612.693 115.526 612.409 115.592 612.153 115.725C611.898 115.857 611.677 116.039 611.49 116.271C611.303 116.504 611.16 116.771 611.06 117.071C610.959 117.368 610.909 117.682 610.909 118.015L610.376 117.994ZM620.753 115.567H616.747V114.604H620.753V115.567ZM619.372 112.806V120.168C619.372 120.423 619.411 120.615 619.488 120.742C619.566 120.87 619.666 120.954 619.789 120.995C619.912 121.036 620.044 121.057 620.186 121.057C620.29 121.057 620.4 121.048 620.514 121.029C620.632 121.011 620.719 120.995 620.773 120.981L620.78 122C620.68 122.032 620.548 122.062 620.384 122.089C620.224 122.121 620.031 122.137 619.803 122.137C619.493 122.137 619.208 122.075 618.948 121.952C618.688 121.829 618.481 121.624 618.326 121.337C618.171 121.045 618.094 120.653 618.094 120.161V112.806H619.372ZM626.529 120.038C626.529 119.856 626.488 119.687 626.406 119.532C626.329 119.373 626.169 119.229 625.928 119.102C625.686 118.969 625.322 118.853 624.834 118.753C624.287 118.639 623.813 118.495 623.412 118.322C623.016 118.145 622.708 117.919 622.489 117.646C622.275 117.372 622.168 117.033 622.168 116.627C622.168 116.235 622.28 115.877 622.503 115.554C622.731 115.226 623.05 114.964 623.46 114.768C623.875 114.567 624.358 114.467 624.909 114.467C625.502 114.467 626.007 114.572 626.427 114.781C626.851 114.986 627.174 115.264 627.397 115.615C627.621 115.962 627.732 116.347 627.732 116.771H626.454C626.454 116.465 626.32 116.176 626.051 115.902C625.786 115.629 625.406 115.492 624.909 115.492C624.563 115.492 624.28 115.547 624.062 115.656C623.847 115.761 623.69 115.898 623.59 116.066C623.494 116.23 623.446 116.404 623.446 116.586C623.446 116.768 623.492 116.928 623.583 117.064C623.674 117.197 623.84 117.315 624.082 117.42C624.328 117.525 624.684 117.63 625.148 117.734C625.755 117.871 626.254 118.035 626.646 118.227C627.037 118.418 627.329 118.653 627.521 118.931C627.712 119.209 627.808 119.548 627.808 119.949C627.808 120.378 627.689 120.758 627.452 121.091C627.215 121.419 626.882 121.676 626.454 121.863C626.026 122.046 625.522 122.137 624.943 122.137C624.292 122.137 623.74 122.021 623.289 121.788C622.838 121.556 622.496 121.257 622.264 120.893C622.031 120.523 621.915 120.134 621.915 119.724H623.193C623.216 120.07 623.316 120.346 623.494 120.551C623.676 120.751 623.897 120.895 624.157 120.981C624.422 121.068 624.684 121.111 624.943 121.111C625.29 121.111 625.579 121.066 625.812 120.975C626.049 120.879 626.226 120.751 626.345 120.592C626.468 120.428 626.529 120.243 626.529 120.038ZM634.206 122H632.928V114.604H634.172L634.206 115.766V122ZM636.51 115.731C636.4 115.709 636.298 115.695 636.202 115.69C636.111 115.681 636.006 115.677 635.888 115.677C635.5 115.677 635.172 115.757 634.903 115.916C634.639 116.076 634.434 116.297 634.288 116.579C634.142 116.857 634.051 117.176 634.015 117.536L633.652 117.741C633.652 117.144 633.732 116.6 633.892 116.107C634.051 115.611 634.299 115.214 634.637 114.918C634.979 114.617 635.416 114.467 635.949 114.467C636.036 114.467 636.138 114.478 636.257 114.501C636.38 114.519 636.464 114.54 636.51 114.562V115.731ZM640.748 122.137C640.06 122.137 639.461 121.984 638.95 121.679C638.444 121.369 638.05 120.945 637.768 120.407C637.49 119.869 637.351 119.254 637.351 118.562V118.268C637.351 117.465 637.503 116.782 637.809 116.217C638.118 115.647 638.52 115.214 639.012 114.918C639.508 114.617 640.033 114.467 640.584 114.467C641.295 114.467 641.874 114.626 642.32 114.945C642.771 115.26 643.102 115.69 643.312 116.237C643.526 116.78 643.633 117.395 643.633 118.083V118.65H638.109V117.625H642.354V117.529C642.336 117.201 642.27 116.882 642.156 116.572C642.042 116.258 641.86 116 641.609 115.8C641.359 115.595 641.017 115.492 640.584 115.492C640.201 115.492 639.862 115.602 639.565 115.82C639.274 116.035 639.044 116.349 638.875 116.764C638.711 117.174 638.629 117.675 638.629 118.268V118.562C638.629 119.031 638.715 119.459 638.889 119.847C639.062 120.229 639.312 120.537 639.641 120.77C639.969 120.997 640.361 121.111 640.816 121.111C641.263 121.111 641.641 121.02 641.951 120.838C642.261 120.656 642.532 120.412 642.765 120.106L643.537 120.708C643.3 121.073 642.958 121.403 642.512 121.699C642.07 121.991 641.482 122.137 640.748 122.137ZM649.416 120.038C649.416 119.856 649.375 119.687 649.293 119.532C649.215 119.373 649.056 119.229 648.814 119.102C648.573 118.969 648.208 118.853 647.721 118.753C647.174 118.639 646.7 118.495 646.299 118.322C645.902 118.145 645.595 117.919 645.376 117.646C645.162 117.372 645.055 117.033 645.055 116.627C645.055 116.235 645.166 115.877 645.39 115.554C645.618 115.226 645.937 114.964 646.347 114.768C646.761 114.567 647.244 114.467 647.796 114.467C648.388 114.467 648.894 114.572 649.313 114.781C649.737 114.986 650.061 115.264 650.284 115.615C650.507 115.962 650.619 116.347 650.619 116.771H649.341C649.341 116.465 649.206 116.176 648.938 115.902C648.673 115.629 648.293 115.492 647.796 115.492C647.45 115.492 647.167 115.547 646.948 115.656C646.734 115.761 646.577 115.898 646.477 116.066C646.381 116.23 646.333 116.404 646.333 116.586C646.333 116.768 646.379 116.928 646.47 117.064C646.561 117.197 646.727 117.315 646.969 117.42C647.215 117.525 647.57 117.63 648.035 117.734C648.641 117.871 649.14 118.035 649.532 118.227C649.924 118.418 650.216 118.653 650.407 118.931C650.599 119.209 650.694 119.548 650.694 119.949C650.694 120.378 650.576 120.758 650.339 121.091C650.102 121.419 649.769 121.676 649.341 121.863C648.912 122.046 648.409 122.137 647.83 122.137C647.178 122.137 646.627 122.021 646.176 121.788C645.725 121.556 645.383 121.257 645.15 120.893C644.918 120.523 644.802 120.134 644.802 119.724H646.08C646.103 120.07 646.203 120.346 646.381 120.551C646.563 120.751 646.784 120.895 647.044 120.981C647.308 121.068 647.57 121.111 647.83 121.111C648.176 121.111 648.466 121.066 648.698 120.975C648.935 120.879 649.113 120.751 649.231 120.592C649.354 120.428 649.416 120.243 649.416 120.038ZM655.418 122.137C654.73 122.137 654.131 121.984 653.62 121.679C653.114 121.369 652.72 120.945 652.438 120.407C652.16 119.869 652.021 119.254 652.021 118.562V118.268C652.021 117.465 652.173 116.782 652.479 116.217C652.788 115.647 653.189 115.214 653.682 114.918C654.178 114.617 654.702 114.467 655.254 114.467C655.965 114.467 656.544 114.626 656.99 114.945C657.441 115.26 657.772 115.69 657.981 116.237C658.196 116.78 658.303 117.395 658.303 118.083V118.65H652.779V117.625H657.024V117.529C657.006 117.201 656.94 116.882 656.826 116.572C656.712 116.258 656.53 116 656.279 115.8C656.029 115.595 655.687 115.492 655.254 115.492C654.871 115.492 654.532 115.602 654.235 115.82C653.944 116.035 653.714 116.349 653.545 116.764C653.381 117.174 653.299 117.675 653.299 118.268V118.562C653.299 119.031 653.385 119.459 653.559 119.847C653.732 120.229 653.982 120.537 654.311 120.77C654.639 120.997 655.031 121.111 655.486 121.111C655.933 121.111 656.311 121.02 656.621 120.838C656.931 120.656 657.202 120.412 657.435 120.106L658.207 120.708C657.97 121.073 657.628 121.403 657.182 121.699C656.74 121.991 656.152 122.137 655.418 122.137ZM661.058 122H659.779V114.604H661.023L661.058 115.766V122ZM663.361 115.731C663.252 115.709 663.149 115.695 663.054 115.69C662.963 115.681 662.858 115.677 662.739 115.677C662.352 115.677 662.024 115.757 661.755 115.916C661.491 116.076 661.285 116.297 661.14 116.579C660.994 116.857 660.903 117.176 660.866 117.536L660.504 117.741C660.504 117.144 660.584 116.6 660.743 116.107C660.903 115.611 661.151 115.214 661.488 114.918C661.83 114.617 662.268 114.467 662.801 114.467C662.887 114.467 662.99 114.478 663.108 114.501C663.231 114.519 663.316 114.54 663.361 114.562V115.731ZM668.912 114.604H670.218L667.565 122H666.704L666.902 120.865L668.912 114.604ZM667.299 120.899L667.449 122H666.595L663.915 114.604H665.221L667.299 120.899ZM674.518 122.137C673.829 122.137 673.23 121.984 672.72 121.679C672.214 121.369 671.82 120.945 671.537 120.407C671.259 119.869 671.12 119.254 671.12 118.562V118.268C671.12 117.465 671.273 116.782 671.578 116.217C671.888 115.647 672.289 115.214 672.781 114.918C673.278 114.617 673.802 114.467 674.354 114.467C675.064 114.467 675.643 114.626 676.09 114.945C676.541 115.26 676.871 115.69 677.081 116.237C677.295 116.78 677.402 117.395 677.402 118.083V118.65H671.879V117.625H676.124V117.529C676.106 117.201 676.04 116.882 675.926 116.572C675.812 116.258 675.63 116 675.379 115.8C675.128 115.595 674.786 115.492 674.354 115.492C673.971 115.492 673.631 115.602 673.335 115.82C673.043 116.035 672.813 116.349 672.645 116.764C672.48 117.174 672.398 117.675 672.398 118.268V118.562C672.398 119.031 672.485 119.459 672.658 119.847C672.831 120.229 673.082 120.537 673.41 120.77C673.738 120.997 674.13 121.111 674.586 121.111C675.033 121.111 675.411 121.02 675.721 120.838C676.031 120.656 676.302 120.412 676.534 120.106L677.307 120.708C677.07 121.073 676.728 121.403 676.281 121.699C675.839 121.991 675.251 122.137 674.518 122.137ZM683.541 111.5H684.819V122H683.65L683.541 120.564V111.5ZM678.571 118.24C678.571 117.488 678.692 116.83 678.934 116.265C679.18 115.695 679.521 115.253 679.959 114.938C680.396 114.624 680.909 114.467 681.497 114.467C682.117 114.467 682.634 114.61 683.049 114.897C683.464 115.18 683.787 115.583 684.02 116.107C684.257 116.632 684.409 117.256 684.478 117.98V118.644C684.409 119.359 684.259 119.979 684.026 120.503C683.794 121.022 683.468 121.426 683.049 121.713C682.634 121.995 682.112 122.137 681.483 122.137C680.905 122.137 680.396 121.975 679.959 121.651C679.521 121.323 679.18 120.877 678.934 120.312C678.692 119.746 678.571 119.104 678.571 118.384V118.24ZM679.85 118.384C679.85 118.876 679.916 119.325 680.048 119.73C680.185 120.136 680.396 120.462 680.684 120.708C680.971 120.95 681.342 121.07 681.798 121.07C682.217 121.07 682.561 120.981 682.83 120.804C683.104 120.626 683.322 120.391 683.486 120.1C683.65 119.808 683.778 119.491 683.869 119.149V117.488C683.814 117.238 683.735 116.996 683.63 116.764C683.53 116.527 683.397 116.317 683.233 116.135C683.074 115.948 682.876 115.8 682.639 115.69C682.406 115.581 682.131 115.526 681.812 115.526C681.351 115.526 680.975 115.649 680.684 115.896C680.396 116.142 680.185 116.472 680.048 116.887C679.916 117.297 679.85 117.748 679.85 118.24V118.384Z" fill="#21243D"/>
</svg>
